<?xml version="1.0" standalone="no"?>
<!DOCTYPE svg PUBLIC "-//W3C//DTD SVG 20010904//EN"
 "http://www.w3.org/TR/2001/REC-SVG-20010904/DTD/svg10.dtd">
<svg version="1.0" xmlns="http://www.w3.org/2000/svg"
 width="272.000000pt" height="272.000000pt" viewBox="0 0 272.000000 272.000000"
 preserveAspectRatio="xMidYMid meet">
<metadata>
Created by potrace 1.11, written by Peter Selinger 2001-2013
</metadata>
<g transform="translate(0.000000,272.000000) scale(0.100000,-0.100000)"
fill="#000000" stroke="none">
<path d="M1214 2516 c-122 -39 -234 -174 -265 -316 -14 -65 -5 -161 18 -200
16 -28 16 -29 -16 -67 -166 -199 -295 -416 -356 -597 -69 -206 5 -427 179
-536 31 -19 54 -39 53 -44 -2 -5 -30 -17 -64 -27 -83 -26 -137 -85 -151 -165
-14 -81 0 -132 48 -179 l40 -39 0 -87 c0 -79 -14 -147 -45 -221 -10 -26 21
-23 35 2 12 22 35 17 26 -6 -4 -11 14 -14 99 -14 l105 0 0 90 c0 93 18 155 43
147 21 -7 39 -59 44 -126 2 -36 6 -76 9 -88 l4 -23 475 0 474 0 3 53 3 52 25
-50 25 -50 117 -3 117 -3 -47 93 c-26 51 -58 130 -70 176 l-23 83 32 36 c17
20 38 53 47 72 21 51 19 139 -6 188 -33 63 -112 128 -182 149 -64 19 -69 24
-45 44 27 23 74 116 91 181 26 100 15 258 -24 376 -67 199 -154 338 -315 501
-81 83 -214 182 -244 182 -12 0 -14 7 -9 28 26 112 29 151 17 206 -31 141
-148 221 -267 182z m-24 -84 c0 -14 -23 -32 -42 -32 -20 0 -25 26 -5 33 20 8
47 8 47 -1z m-80 -48 c0 -16 -36 -64 -56 -74 -38 -21 -49 -53 -30 -91 11 -22
14 -44 10 -68 -9 -48 -13 -54 -30 -40 -22 18 -18 125 7 179 22 50 66 100 86
100 7 0 13 -3 13 -6z m-30 -119 c-12 -15 -30 -12 -30 6 0 5 10 9 21 9 18 0 19
-2 9 -15z m388 -231 c33 -3 35 -6 7 -19 -19 -10 -22 -13 -8 -9 18 4 22 2 17
-11 -4 -11 -13 -14 -28 -9 -27 9 -64 34 -49 34 6 0 15 10 19 22 5 18 8 19 18
7 6 -8 17 -14 24 -15z m-6 -270 c41 -21 69 -63 66 -98 -6 -61 -84 -87 -372
-122 -189 -23 -250 -7 -276 72 -15 45 2 74 63 103 119 58 439 86 519 45z
m-662 -116 c-132 -252 -169 -458 -109 -597 13 -31 45 -72 85 -111 55 -53 62
-64 53 -81 -5 -11 -7 -24 -3 -30 13 -21 -59 24 -103 64 -90 83 -136 227 -113
355 15 82 57 189 116 301 48 89 111 191 118 191 2 0 -18 -42 -44 -92z m543
-469 c7 -80 -3 -118 -33 -121 -58 -4 -55 -9 -61 82 l-5 85 -2 -87 c-1 -49 -5
-88 -9 -88 -32 1 -63 66 -63 130 0 48 1 50 28 51 15 1 33 1 40 0 6 -1 20 3 30
8 9 6 29 11 43 11 25 0 26 -3 32 -71z m-439 -361 c14 -18 23 -34 21 -36 -2 -2
-20 2 -40 9 -23 9 -34 18 -30 27 3 7 5 18 5 23 0 18 19 8 44 -23z m-30 -139
c1 -21 8 -45 15 -52 10 -10 11 -8 5 8 -6 19 -5 18 15 -2 26 -27 26 -28 -2 -29
-32 -2 -57 45 -57 104 1 38 3 44 11 29 6 -11 12 -36 13 -58z m-197 -56 c-28
-45 -34 -81 -23 -153 5 -31 5 -32 -5 -10 -20 48 -13 118 15 161 33 50 44 51
13 2z m1118 -2 c-15 -14 -126 -67 -160 -76 -16 -5 -37 -10 -45 -12 -8 -2 -67
-11 -130 -19 -196 -27 -395 -8 -507 48 -47 24 -53 33 -23 35 12 1 20 -4 20
-13 0 -8 4 -13 9 -10 13 9 42 -4 35 -16 -3 -5 0 -8 7 -7 8 1 21 0 29 -4 85
-33 322 -42 460 -19 100 18 203 49 253 78 43 24 69 32 52 15z m-817 -262 c4
-34 -20 -44 -49 -20 -30 24 -19 54 18 49 22 -2 29 -9 31 -29z m-254 -268 c-15
-15 -16 -14 -10 9 3 14 9 43 14 65 l7 40 3 -49 c2 -36 -1 -53 -14 -65z"/>
</g>
</svg>
